<mxfile host="Electron" agent="Mozilla/5.0 (Windows NT 10.0; Win64; x64) AppleWebKit/537.36 (KHTML, like Gecko) draw.io/24.7.17 Chrome/128.0.6613.36 Electron/32.0.1 Safari/537.36" version="24.7.17">
  <diagram name="Page-1" id="by_585lMZ8FlUFathO38">
    <mxGraphModel dx="1783" dy="1726" grid="1" gridSize="10" guides="1" tooltips="1" connect="1" arrows="1" fold="1" page="1" pageScale="1" pageWidth="827" pageHeight="1169" math="0" shadow="0">
      <root>
        <mxCell id="0" />
        <mxCell id="1" parent="0" />
        <mxCell id="Gg003qAHj3PnjjYdCO2c-6" value="includes api from" style="edgeStyle=orthogonalEdgeStyle;rounded=0;orthogonalLoop=1;jettySize=auto;html=1;exitX=0.5;exitY=1;exitDx=0;exitDy=0;entryX=0.5;entryY=0;entryDx=0;entryDy=0;curved=1;" parent="1" source="Gg003qAHj3PnjjYdCO2c-1" target="Gg003qAHj3PnjjYdCO2c-3" edge="1">
          <mxGeometry relative="1" as="geometry" />
        </mxCell>
        <mxCell id="Gg003qAHj3PnjjYdCO2c-7" value="includes api from" style="edgeStyle=orthogonalEdgeStyle;rounded=0;orthogonalLoop=1;jettySize=auto;html=1;exitX=1;exitY=0.75;exitDx=0;exitDy=0;entryX=0.5;entryY=0;entryDx=0;entryDy=0;curved=1;" parent="1" source="Gg003qAHj3PnjjYdCO2c-1" target="Gg003qAHj3PnjjYdCO2c-4" edge="1">
          <mxGeometry relative="1" as="geometry" />
        </mxCell>
        <mxCell id="Gg003qAHj3PnjjYdCO2c-8" value="includes api from" style="edgeStyle=orthogonalEdgeStyle;rounded=0;orthogonalLoop=1;jettySize=auto;html=1;exitX=1;exitY=0.25;exitDx=0;exitDy=0;entryX=0.5;entryY=0;entryDx=0;entryDy=0;curved=1;" parent="1" source="Gg003qAHj3PnjjYdCO2c-1" target="Gg003qAHj3PnjjYdCO2c-5" edge="1">
          <mxGeometry relative="1" as="geometry" />
        </mxCell>
        <mxCell id="Gg003qAHj3PnjjYdCO2c-11" value="includes" style="edgeStyle=orthogonalEdgeStyle;rounded=0;orthogonalLoop=1;jettySize=auto;html=1;exitX=0.25;exitY=0;exitDx=0;exitDy=0;entryX=0;entryY=0.25;entryDx=0;entryDy=0;curved=1;" parent="1" source="Gg003qAHj3PnjjYdCO2c-1" target="Gg003qAHj3PnjjYdCO2c-2" edge="1">
          <mxGeometry x="-0.234" y="-10" relative="1" as="geometry">
            <mxPoint as="offset" />
          </mxGeometry>
        </mxCell>
        <mxCell id="5D6MyuwApm2sFghIOm1U-15" value="visits" style="edgeStyle=orthogonalEdgeStyle;rounded=0;orthogonalLoop=1;jettySize=auto;html=1;exitX=0;exitY=0.25;exitDx=0;exitDy=0;startArrow=classic;startFill=1;endArrow=none;endFill=0;curved=1;" edge="1" parent="1" source="Gg003qAHj3PnjjYdCO2c-1">
          <mxGeometry relative="1" as="geometry">
            <mxPoint x="-90" y="95.33333333333326" as="targetPoint" />
          </mxGeometry>
        </mxCell>
        <mxCell id="5D6MyuwApm2sFghIOm1U-16" value="redirect to website" style="edgeStyle=orthogonalEdgeStyle;rounded=0;orthogonalLoop=1;jettySize=auto;html=1;exitX=0;exitY=0.75;exitDx=0;exitDy=0;curved=1;" edge="1" parent="1" source="Gg003qAHj3PnjjYdCO2c-1">
          <mxGeometry relative="1" as="geometry">
            <mxPoint x="-90" y="125.33333333333326" as="targetPoint" />
          </mxGeometry>
        </mxCell>
        <mxCell id="Gg003qAHj3PnjjYdCO2c-1" value="smartMirrorProject&lt;div&gt;&lt;font color=&quot;#b3b3b3&quot;&gt;urls.py&lt;/font&gt;&lt;/div&gt;" style="rounded=1;whiteSpace=wrap;html=1;" parent="1" vertex="1">
          <mxGeometry x="40" y="80" width="120" height="60" as="geometry" />
        </mxCell>
        <mxCell id="Gg003qAHj3PnjjYdCO2c-12" value="fetches widget&lt;div&gt;data with api&lt;/div&gt;" style="edgeStyle=orthogonalEdgeStyle;rounded=0;orthogonalLoop=1;jettySize=auto;html=1;exitX=0;exitY=0.75;exitDx=0;exitDy=0;entryX=0.75;entryY=0;entryDx=0;entryDy=0;curved=1;" parent="1" source="Gg003qAHj3PnjjYdCO2c-2" target="Gg003qAHj3PnjjYdCO2c-1" edge="1">
          <mxGeometry x="-0.7241" y="45" relative="1" as="geometry">
            <mxPoint as="offset" />
          </mxGeometry>
        </mxCell>
        <mxCell id="5D6MyuwApm2sFghIOm1U-9" value="generates" style="edgeStyle=orthogonalEdgeStyle;rounded=0;orthogonalLoop=1;jettySize=auto;html=1;exitX=0.5;exitY=0;exitDx=0;exitDy=0;entryX=0.5;entryY=1;entryDx=0;entryDy=0;curved=1;" edge="1" parent="1" source="Gg003qAHj3PnjjYdCO2c-2" target="5D6MyuwApm2sFghIOm1U-8">
          <mxGeometry relative="1" as="geometry" />
        </mxCell>
        <mxCell id="Gg003qAHj3PnjjYdCO2c-2" value="homePage&lt;div&gt;&lt;font color=&quot;#b3b3b3&quot;&gt;urls.py&lt;/font&gt;&lt;/div&gt;" style="rounded=1;whiteSpace=wrap;html=1;" parent="1" vertex="1">
          <mxGeometry x="200" y="-40" width="120" height="60" as="geometry" />
        </mxCell>
        <mxCell id="Gg003qAHj3PnjjYdCO2c-3" value="widgetOne&lt;div&gt;&lt;font color=&quot;#b3b3b3&quot;&gt;urls.py&lt;/font&gt;&lt;/div&gt;" style="rounded=1;whiteSpace=wrap;html=1;" parent="1" vertex="1">
          <mxGeometry x="200" y="200" width="120" height="60" as="geometry" />
        </mxCell>
        <mxCell id="Gg003qAHj3PnjjYdCO2c-4" value="widgetTwo&lt;div&gt;&lt;font color=&quot;#b3b3b3&quot;&gt;urls.py&lt;/font&gt;&lt;/div&gt;" style="rounded=1;whiteSpace=wrap;html=1;" parent="1" vertex="1">
          <mxGeometry x="360" y="200" width="120" height="60" as="geometry" />
        </mxCell>
        <mxCell id="Gg003qAHj3PnjjYdCO2c-5" value="widgetThree&lt;div&gt;&lt;font color=&quot;#b3b3b3&quot;&gt;urls.py&lt;/font&gt;&lt;/div&gt;" style="rounded=1;whiteSpace=wrap;html=1;" parent="1" vertex="1">
          <mxGeometry x="520" y="200" width="120" height="60" as="geometry" />
        </mxCell>
        <mxCell id="Gg003qAHj3PnjjYdCO2c-13" value="Visitor" style="shape=umlActor;verticalLabelPosition=bottom;verticalAlign=top;html=1;outlineConnect=0;" parent="1" vertex="1">
          <mxGeometry x="-140" y="80" width="30" height="60" as="geometry" />
        </mxCell>
        <mxCell id="5D6MyuwApm2sFghIOm1U-8" value="homePage&lt;div&gt;&lt;font color=&quot;#b3b3b3&quot;&gt;view&lt;/font&gt;&lt;/div&gt;" style="rounded=1;whiteSpace=wrap;html=1;" vertex="1" parent="1">
          <mxGeometry x="200" y="-190" width="120" height="60" as="geometry" />
        </mxCell>
      </root>
    </mxGraphModel>
  </diagram>
</mxfile>
